<svg width="30" height="30" viewBox="0 0 30 30" fill="none" xmlns="http://www.w3.org/2000/svg">
<rect width="30" height="30" fill="#F5F5F5"/>
<g id="Design">
<path d="M-10220 -808C-10220 -809.105 -10219.1 -810 -10218 -810H2952C2953.1 -810 2954 -809.105 2954 -808V5059C2954 5060.1 2953.1 5061 2952 5061H-10218C-10219.1 5061 -10220 5060.1 -10220 5059V-808Z" fill="white"/>
<path d="M-10218 -809H2952V-811H-10218V-809ZM2953 -808V5059H2955V-808H2953ZM2952 5060H-10218V5062H2952V5060ZM-10219 5059V-808H-10221V5059H-10219ZM-10218 5060C-10218.6 5060 -10219 5059.55 -10219 5059H-10221C-10221 5060.66 -10219.7 5062 -10218 5062V5060ZM2953 5059C2953 5059.55 2952.55 5060 2952 5060V5062C2953.66 5062 2955 5060.66 2955 5059H2953ZM2952 -809C2952.55 -809 2953 -808.552 2953 -808H2955C2955 -809.657 2953.66 -811 2952 -811V-809ZM-10218 -811C-10219.7 -811 -10221 -809.657 -10221 -808H-10219C-10219 -808.552 -10218.6 -809 -10218 -809V-811Z" fill="black" fill-opacity="0.1"/>
<g id="Team Single" clip-path="url(#clip0_1_5)">
<rect width="1920" height="1564" transform="translate(-1420.5 -289)" fill="white"/>
<g id="Team">
<g id="Content">
<g id="Content_2">
<g id="Title">
<g id="Name">
<g id="Social Media Icon">
<g id="Linked In">
<path id="Icon" d="M14.84 29.24C22.9144 29.24 29.46 22.6944 29.46 14.62C29.46 6.5456 22.9144 0 14.84 0C6.76557 0 0.219971 6.5456 0.219971 14.62C0.219971 22.6944 6.76557 29.24 14.84 29.24Z" fill="black"/>
<path id="Icon_2" d="M8.71071 11.8999H11.5407V20.9999H8.71071V11.8999ZM10.1207 7.37988C11.0307 7.37988 11.7607 8.10988 11.7607 9.01988C11.7607 9.91988 11.0307 10.6599 10.1207 10.6599C9.21071 10.6599 8.48071 9.91988 8.48071 9.01988C8.48071 8.10988 9.22071 7.37988 10.1207 7.37988Z" fill="white"/>
<path id="Icon_3" d="M13.31 11.8999H16.02V13.1399H16.06C16.44 12.4199 17.36 11.6699 18.74 11.6699C21.6 11.6699 22.13 13.5499 22.13 15.9999V20.9899H19.3V16.5699C19.3 15.5099 19.28 14.1599 17.83 14.1599C16.36 14.1599 16.13 15.3099 16.13 16.4999V20.9999H13.3V11.8999H13.31Z" fill="white"/>
</g>
</g>
</g>
</g>
</g>
</g>
</g>
</g>
</g>
<defs>
<clipPath id="clip0_1_5">
<rect width="1920" height="1564" fill="white" transform="translate(-1420.5 -289)"/>
</clipPath>
</defs>
</svg>
